<svg xmlns="http://www.w3.org/2000/svg" width="1146" height="300" viewBox="0 0 1146 300"><defs><marker id="arrow" markerWidth="10" markerHeight="10" refX="9" refY="3" orient="auto"><path d="M0,0 L10,3 L0,6 z" fill="#000000"/></marker><marker id="triangle" markerWidth="12" markerHeight="12" refX="10" refY="6" orient="auto"><path d="M0,0 L12,6 L0,12 z" fill="white" stroke="#000000"/></marker><marker id="diamondFilled" markerWidth="14" markerHeight="14" refX="7" refY="7" orient="auto"><path d="M0,7 L7,0 L14,7 L7,14 z" fill="#000000"/></marker><marker id="diamondOpen" markerWidth="14" markerHeight="14" refX="7" refY="7" orient="auto"><path d="M0,7 L7,0 L14,7 L7,14 z" fill="white" stroke="#000000"/></marker><marker id="erOne" markerWidth="12" markerHeight="14" refX="2" refY="7" orient="auto"><path d="M2,1V13 M6,1V13" stroke="#000"/></marker><marker id="erMany" markerWidth="14" markerHeight="14" refX="2" refY="7" orient="auto"><path d="M2,7L12,1 M2,7L12,7 M2,7L12,13" stroke="#000" fill="none"/></marker><marker id="erZeroOne" markerWidth="18" markerHeight="14" refX="2" refY="7" orient="auto"><circle cx="5" cy="7" r="3" fill="white" stroke="#000"/><path d="M11,1V13" stroke="#000"/></marker><marker id="erZeroMany" markerWidth="20" markerHeight="14" refX="2" refY="7" orient="auto"><circle cx="4" cy="7" r="3" fill="white" stroke="#000"/><path d="M9,7L19,1 M9,7L19,7 M9,7L19,13" stroke="#000" fill="none"/></marker><marker id="erOneMany" markerWidth="20" markerHeight="14" refX="2" refY="7" orient="auto"><path d="M3,1V13 M8,7L18,1 M8,7L18,7 M8,7L18,13" stroke="#000" fill="none"/></marker></defs><rect width="100%" height="100%" fill="#FFFFFF"/><text x="80" y="32" font-family="Arial" font-size="20" font-weight="bold" fill="#1E293B">UML Component Diagram</text><path d="M 288 150 L 366 150" fill="none" stroke="#000000" stroke-width="1.5" marker-end="url(#arrow)" stroke-dasharray="6 4"/><path d="M 542 150 L 620 150" fill="none" stroke="#000000" stroke-width="1.5" marker-end="url(#triangle)" stroke-dasharray="6 4"/><path d="M 788 150 L 866 150" fill="none" stroke="#000000" stroke-width="1.5" marker-end="url(#arrow)" stroke-dasharray="6 4"/><g><rect x="120" y="120" width="160" height="60" rx="8" fill="#F5F7FA" stroke="#64748B"/><text x="200" y="146" text-anchor="middle" font-family="Arial" font-size="14" fill="#1E293B"><tspan x="200" dy="0">&lt;&lt;component&gt;&gt;</tspan><tspan x="200" dy="18">Web UI</tspan></text></g><g><rect x="374" y="120" width="160" height="60" rx="8" fill="#F5F7FA" stroke="#64748B"/><text x="454" y="146" text-anchor="middle" font-family="Arial" font-size="14" fill="#1E293B"><tspan x="454" dy="0">&lt;&lt;component&gt;&gt;</tspan><tspan x="454" dy="18">API Gateway</tspan></text></g><g><rect x="628" y="120" width="160" height="60" rx="8" fill="#F5F7FA" stroke="#64748B"/><text x="708" y="146" text-anchor="middle" font-family="Arial" font-size="14" fill="#1E293B"><tspan x="708" dy="0">&lt;&lt;component&gt;&gt;</tspan><tspan x="708" dy="18">Catalog Service</tspan></text></g><g><rect x="866" y="120" width="160" height="60" rx="8" fill="#E8F1FF" stroke="#3B82F6"/><text x="946" y="146" text-anchor="middle" font-family="Arial" font-size="14" fill="#1E293B"><tspan x="946" dy="0">&lt;&lt;database&gt;&gt;</tspan><tspan x="946" dy="18">Catalog DB</tspan></text></g><path d="M289 144A8 8 0 0 0 289 156" fill="none" stroke="#334155"/><circle cx="370" cy="150" r="5" fill="white" stroke="#334155"/><path d="M543 144A8 8 0 0 0 543 156" fill="none" stroke="#334155"/><circle cx="624" cy="150" r="5" fill="white" stroke="#334155"/></svg>