<svg xmlns="http://www.w3.org/2000/svg" width="1779" height="517" viewBox="0 0 1779 517"><defs><marker id="arrow" markerWidth="10" markerHeight="10" refX="9" refY="3" orient="auto"><path d="M0,0 L10,3 L0,6 z" fill="#000000"/></marker><marker id="triangle" markerWidth="12" markerHeight="12" refX="10" refY="6" orient="auto"><path d="M0,0 L12,6 L0,12 z" fill="white" stroke="#000000"/></marker><marker id="diamondFilled" markerWidth="14" markerHeight="14" refX="7" refY="7" orient="auto"><path d="M0,7 L7,0 L14,7 L7,14 z" fill="#000000"/></marker><marker id="diamondOpen" markerWidth="14" markerHeight="14" refX="7" refY="7" orient="auto"><path d="M0,7 L7,0 L14,7 L7,14 z" fill="white" stroke="#000000"/></marker><marker id="erOne" markerWidth="12" markerHeight="14" refX="2" refY="7" orient="auto"><path d="M2,1V13 M6,1V13" stroke="#000"/></marker><marker id="erMany" markerWidth="14" markerHeight="14" refX="2" refY="7" orient="auto"><path d="M2,7L12,1 M2,7L12,7 M2,7L12,13" stroke="#000" fill="none"/></marker><marker id="erZeroOne" markerWidth="18" markerHeight="14" refX="2" refY="7" orient="auto"><circle cx="5" cy="7" r="3" fill="white" stroke="#000"/><path d="M11,1V13" stroke="#000"/></marker><marker id="erZeroMany" markerWidth="20" markerHeight="20" refX="2" refY="7" orient="auto"><circle cx="4" cy="7" r="3" fill="white" stroke="#000"/><path d="M9,7L19,1 M9,7L19,7 M9,7L19,13" stroke="#000" fill="none"/></marker><marker id="erOneMany" markerWidth="20" markerHeight="14" refX="2" refY="7" orient="auto"><path d="M3,1V13 M8,7L18,1 M8,7L18,7 M8,7L18,13" stroke="#000" fill="none"/></marker></defs><rect width="100%" height="100%" fill="#FFFFFF"/><text x="80" y="32" font-family="Arial" font-size="20" font-weight="bold" fill="#1E293B">Production Deployment Architecture</text><g><rect x="691" y="120" width="196" height="277" rx="4" fill="#FFFFFF" fill-opacity="0.72" stroke="#64748B"/><text x="701" y="142" font-family="Arial" font-size="14" font-weight="bold" fill="#1E293B">Application Cluster</text></g><g><rect x="975" y="132" width="414" height="145" rx="4" fill="#FFFFFF" fill-opacity="0.72" stroke="#64748B"/><text x="985" y="154" font-family="Arial" font-size="14" font-weight="bold" fill="#1E293B">Data Network</text></g><path d="M 260 213 L 468 213" fill="none" stroke="#000000" stroke-width="1.5"  /><text x="364" y="230" text-anchor="middle" font-family="Arial" font-size="12" fill="#000000" paint-order="stroke" stroke="white" stroke-width="4" stroke-linejoin="round">HTTPS</text><path d="M 608 201 L 686 201 L 719 201" fill="none" stroke="#000000" stroke-width="1.5"  /><path d="M 608 225 L 618 225 L 618 333 L 686 333 L 719 333" fill="none" stroke="#000000" stroke-width="1.5"  /><path d="M 859 201 L 892 201 L 970 201 L 1003 201" fill="none" stroke="#000000" stroke-width="1.5"  /><path d="M 859 333 L 892 333 L 902 333 L 902 225 L 970 225 L 1003 225" fill="none" stroke="#000000" stroke-width="1.5"  /><path d="M 1143 213 L 1221 213" fill="none" stroke="#000000" stroke-width="1.5"  /><g><rect x="120" y="177" width="140" height="72" rx="8" fill="#F5F7FA" stroke="#64748B"/><text x="190" y="197" text-anchor="middle" font-family="Arial" font-size="14" fill="#1E293B"><tspan x="190" dy="0">Client Device</tspan></text></g><g><rect x="468" y="177" width="140" height="72" rx="8" fill="#F5F7FA" stroke="#64748B"/><text x="538" y="197" text-anchor="middle" font-family="Arial" font-size="14" fill="#1E293B"><tspan x="538" dy="0">Load Balancer</tspan></text></g><g><rect x="719" y="165" width="140" height="72" rx="8" fill="#F5F7FA" stroke="#64748B"/><text x="789" y="185" text-anchor="middle" font-family="Arial" font-size="14" fill="#1E293B"><tspan x="789" dy="0">Application Node A</tspan></text></g><g><rect x="719" y="297" width="140" height="72" rx="8" fill="#F5F7FA" stroke="#64748B"/><text x="789" y="317" text-anchor="middle" font-family="Arial" font-size="14" fill="#1E293B"><tspan x="789" dy="0">Application Node B</tspan></text></g><g><rect x="1003" y="177" width="140" height="72" rx="8" fill="#F0FDF4" stroke="#64748B"/><text x="1073" y="197" text-anchor="middle" font-family="Arial" font-size="14" fill="#1E293B"><tspan x="1073" dy="0">Redis Node</tspan></text></g><g><rect x="1221" y="177" width="140" height="72" rx="8" fill="#E8F1FF" stroke="#3B82F6"/><text x="1291" y="197" text-anchor="middle" font-family="Arial" font-size="14" fill="#1E293B"><tspan x="1291" dy="0">Database Node</tspan></text></g><g><path d="M739 205h94l16 16v12h-110z" fill="#FFF7ED" stroke="#C2410C"/><text x="794" y="223" text-anchor="middle" font-family="Arial" font-size="12">application.jar</text></g><g><path d="M739 337h94l16 16v12h-110z" fill="#FFF7ED" stroke="#C2410C"/><text x="794" y="355" text-anchor="middle" font-family="Arial" font-size="12">application.jar</text></g><g><rect x="1464" y="80" width="220" height="238" rx="5" fill="white" stroke="#94A3B8"/><text x="1479" y="106" font-family="Arial" font-size="15" font-weight="bold">Legend</text><rect x="1479" y="122" width="24" height="18" rx="3" fill="#F5F7FA" stroke="#64748B"/><text x="1513" y="136" font-family="Arial" font-size="11">Actor / User</text><rect x="1479" y="153" width="24" height="18" rx="3" fill="#F5F7FA" stroke="#64748B"/><text x="1513" y="167" font-family="Arial" font-size="11">Service</text><rect x="1479" y="184" width="24" height="18" rx="3" fill="#F5F7FA" stroke="#64748B"/><text x="1513" y="198" font-family="Arial" font-size="11">Gateway</text><rect x="1479" y="215" width="24" height="18" rx="3" fill="#F5F7FA" stroke="#64748B"/><text x="1513" y="229" font-family="Arial" font-size="11">Cache</text><rect x="1479" y="246" width="24" height="18" rx="3" fill="#F5F7FA" stroke="#64748B"/><text x="1513" y="260" font-family="Arial" font-size="11">Database</text><rect x="1479" y="277" width="24" height="18" rx="3" fill="#F5F7FA" stroke="#64748B"/><text x="1513" y="291" font-family="Arial" font-size="11">External System</text></g></svg>