<svg xmlns="http://www.w3.org/2000/svg" width="1100" height="440" viewBox="0 0 1100 440"><defs><marker id="arrow" markerWidth="10" markerHeight="10" refX="9" refY="3" orient="auto"><path d="M0,0 L10,3 L0,6 z" fill="#000000"/></marker><marker id="triangle" markerWidth="12" markerHeight="12" refX="10" refY="6" orient="auto"><path d="M0,0 L12,6 L0,12 z" fill="white" stroke="#000000"/></marker><marker id="diamondFilled" markerWidth="14" markerHeight="14" refX="7" refY="7" orient="auto"><path d="M0,7 L7,0 L14,7 L7,14 z" fill="#000000"/></marker><marker id="diamondOpen" markerWidth="14" markerHeight="14" refX="7" refY="7" orient="auto"><path d="M0,7 L7,0 L14,7 L7,14 z" fill="white" stroke="#000000"/></marker><marker id="erOne" markerWidth="12" markerHeight="14" refX="2" refY="7" orient="auto"><path d="M2,1V13 M6,1V13" stroke="#000"/></marker><marker id="erMany" markerWidth="14" markerHeight="14" refX="2" refY="7" orient="auto"><path d="M2,7L12,1 M2,7L12,7 M2,7L12,13" stroke="#000" fill="none"/></marker><marker id="erZeroOne" markerWidth="18" markerHeight="14" refX="2" refY="7" orient="auto"><circle cx="5" cy="7" r="3" fill="white" stroke="#000"/><path d="M11,1V13" stroke="#000"/></marker><marker id="erZeroMany" markerWidth="20" markerHeight="20" refX="2" refY="7" orient="auto"><circle cx="4" cy="7" r="3" fill="white" stroke="#000"/><path d="M9,7L19,1 M9,7L19,7 M9,7L19,13" stroke="#000" fill="none"/></marker><marker id="erOneMany" markerWidth="20" markerHeight="14" refX="2" refY="7" orient="auto"><path d="M3,1V13 M8,7L18,1 M8,7L18,7 M8,7L18,13" stroke="#000" fill="none"/></marker></defs><rect width="100%" height="100%" fill="#FFFFFF"/><text x="80" y="32" font-family="Arial" font-size="20" font-weight="bold" fill="#1E293B">Timeline</text><rect x="210" y="218" width="680" height="4" fill="#64748B"/><path d="M 360 220 L 470 220" fill="none" stroke="#000000" stroke-width="1.5" marker-end="url(#arrow)" /><path d="M 630 220 L 740 220" fill="none" stroke="#000000" stroke-width="1.5" marker-end="url(#arrow)" /><g><polygon points="280,190 360,220 280,250 200,220" fill="#F5F7FA" stroke="#64748B"/><text x="280" y="268" text-anchor="middle" font-family="Arial" font-size="14" fill="#1E293B">Phase 1</text></g><g><polygon points="550,190 630,220 550,250 470,220" fill="#F5F7FA" stroke="#64748B"/><text x="550" y="268" text-anchor="middle" font-family="Arial" font-size="14" fill="#1E293B">Phase 2</text></g><g><polygon points="820,190 900,220 820,250 740,220" fill="#F5F7FA" stroke="#64748B"/><text x="820" y="268" text-anchor="middle" font-family="Arial" font-size="14" fill="#1E293B">Phase 3</text></g></svg>