<svg xmlns="http://www.w3.org/2000/svg" width="1400" height="466" viewBox="0 0 1400 466"><defs><marker id="arrow" markerWidth="10" markerHeight="10" refX="9" refY="3" orient="auto"><path d="M0,0 L10,3 L0,6 z" fill="#000000"/></marker><marker id="triangle" markerWidth="12" markerHeight="12" refX="10" refY="6" orient="auto"><path d="M0,0 L12,6 L0,12 z" fill="white" stroke="#000000"/></marker><marker id="diamondFilled" markerWidth="14" markerHeight="14" refX="7" refY="7" orient="auto"><path d="M0,7 L7,0 L14,7 L7,14 z" fill="#000000"/></marker><marker id="diamondOpen" markerWidth="14" markerHeight="14" refX="7" refY="7" orient="auto"><path d="M0,7 L7,0 L14,7 L7,14 z" fill="white" stroke="#000000"/></marker><marker id="erOne" markerWidth="12" markerHeight="14" refX="2" refY="7" orient="auto"><path d="M2,1V13 M6,1V13" stroke="#000"/></marker><marker id="erMany" markerWidth="14" markerHeight="14" refX="2" refY="7" orient="auto"><path d="M2,7L12,1 M2,7L12,7 M2,7L12,13" stroke="#000" fill="none"/></marker><marker id="erZeroOne" markerWidth="18" markerHeight="14" refX="2" refY="7" orient="auto"><circle cx="5" cy="7" r="3" fill="white" stroke="#000"/><path d="M11,1V13" stroke="#000"/></marker><marker id="erZeroMany" markerWidth="20" markerHeight="20" refX="2" refY="7" orient="auto"><circle cx="4" cy="7" r="3" fill="white" stroke="#000"/><path d="M9,7L19,1 M9,7L19,7 M9,7L19,13" stroke="#000" fill="none"/></marker><marker id="erOneMany" markerWidth="20" markerHeight="14" refX="2" refY="7" orient="auto"><path d="M3,1V13 M8,7L18,1 M8,7L18,7 M8,7L18,13" stroke="#000" fill="none"/></marker></defs><rect width="100%" height="100%" fill="#FFFFFF"/><text x="80" y="32" font-family="Arial" font-size="20" font-weight="bold" fill="#1E293B">Mind Map</text><path d="M 780 233 L 850 233" fill="none" stroke="#000000" stroke-width="1.5"  /><path d="M 620 233 L 550 190" fill="none" stroke="#000000" stroke-width="1.5"  /><path d="M 620 233 L 550 276" fill="none" stroke="#000000" stroke-width="1.5"  /><path d="M 1010 233 L 1080 190" fill="none" stroke="#000000" stroke-width="1.5"  /><path d="M 1010 233 L 1080 276" fill="none" stroke="#000000" stroke-width="1.5"  /><path d="M 390 190 L 320 190" fill="none" stroke="#000000" stroke-width="1.5"  /><g><rect x="620" y="203" width="160" height="60" rx="8" fill="#F5F7FA" stroke="#64748B"/><text x="700" y="238" text-anchor="middle" font-family="Arial" font-size="14" fill="#1E293B"><tspan x="700" dy="0">Central Topic</tspan></text></g><g><rect x="850" y="203" width="160" height="60" rx="8" fill="#F5F7FA" stroke="#64748B"/><text x="930" y="238" text-anchor="middle" font-family="Arial" font-size="14" fill="#1E293B"><tspan x="930" dy="0">Branch A</tspan></text></g><g><rect x="390" y="160" width="160" height="60" rx="8" fill="#F5F7FA" stroke="#64748B"/><text x="470" y="195" text-anchor="middle" font-family="Arial" font-size="14" fill="#1E293B"><tspan x="470" dy="0">Branch B</tspan></text></g><g><rect x="390" y="246" width="160" height="60" rx="8" fill="#F5F7FA" stroke="#64748B"/><text x="470" y="281" text-anchor="middle" font-family="Arial" font-size="14" fill="#1E293B"><tspan x="470" dy="0">Branch C</tspan></text></g><g><rect x="1080" y="160" width="160" height="60" rx="8" fill="#F5F7FA" stroke="#64748B"/><text x="1160" y="195" text-anchor="middle" font-family="Arial" font-size="14" fill="#1E293B"><tspan x="1160" dy="0">Sub A1</tspan></text></g><g><rect x="1080" y="246" width="160" height="60" rx="8" fill="#F5F7FA" stroke="#64748B"/><text x="1160" y="281" text-anchor="middle" font-family="Arial" font-size="14" fill="#1E293B"><tspan x="1160" dy="0">Sub A2</tspan></text></g><g><rect x="160" y="160" width="160" height="60" rx="8" fill="#F5F7FA" stroke="#64748B"/><text x="240" y="195" text-anchor="middle" font-family="Arial" font-size="14" fill="#1E293B"><tspan x="240" dy="0">Sub B1</tspan></text></g></svg>